<svg width="184" height="148" viewBox="0 0 184 148" fill="none" xmlns="http://www.w3.org/2000/svg">
<mask id="mask0_21_129" style="mask-type:luminance" maskUnits="userSpaceOnUse" x="0" y="0" width="184" height="88">
<path d="M0.207151 0.00859863C0.12238 0.825469 -0.122514 1.35858 0.0752849 1.66814C9.40951 16.4922 18.659 31.3678 28.3134 46.0113C29.3684 47.602 32.778 48.5909 35.1422 48.6597C45.0604 48.9434 54.988 48.7801 66.5922 48.7801C62.4384 55.5386 59.0005 61.1363 55.4213 66.9576C49.5878 61.0073 43.2174 58.2271 36.3102 58.6169C42.3854 68.3764 48.0745 77.5167 54.5171 87.8608C65.2076 71.0591 75.1164 55.4956 85.6092 39.012C81.6815 38.8314 79.2514 38.6165 76.8213 38.6165C72.903 38.6079 68.9752 38.6165 65.0569 38.6165C57.2297 38.6337 49.4026 38.6423 41.5848 38.5219C39.3337 38.4875 36.0088 37.9458 35.0386 36.5614C29.0952 28.0058 23.6793 19.1406 17.3591 9.23493C21.2774 9.23493 23.4626 9.23493 25.6384 9.23493C37.7607 9.23493 49.8829 9.23493 62.0052 9.21774C98.3719 9.19194 134.739 9.15755 171.105 9.40691C178.97 9.4585 182.239 6.47477 184 0H0.207151V0.00859863Z" fill="white"/>
</mask>
<g mask="url(#mask0_21_129)">
<path d="M45.9016 -72.7703L-41.7939 65.8936L137.956 160.633L225.651 21.9695L45.9016 -72.7703Z" fill="#333333"/>
</g>
<mask id="mask1_21_129" style="mask-type:luminance" maskUnits="userSpaceOnUse" x="73" y="39" width="88" height="109">
<path d="M119.377 43.9478C104.89 67.1039 90.2059 90.1568 75.663 113.279C74.7211 114.775 73.3459 117.131 73.977 118.206C79.5342 127.647 85.4964 136.882 92.0143 147.26C102.639 130.166 112.256 114.68 121.948 99.0822C113.574 96.5886 109.223 99.0134 105.936 105.144C102.046 112.401 97.1006 119.186 92.4194 126.469C86.8151 121.464 85.5058 117.303 89.5748 111.137C101.678 92.788 113.386 74.2063 124.425 55.3065C128.334 48.6168 133.119 47.6882 140.965 49.3391C133.147 61.9189 125.574 74.0774 118.011 86.2444C118.369 86.8893 118.727 87.5342 119.085 88.1877C123.191 87.1043 129.342 87.2075 131.075 84.7397C141.144 70.4058 150.167 55.4613 160.5 39.2357C148.528 39.2357 138.337 39.4421 128.164 39.1411C128.004 39.1411 127.844 39.1411 127.684 39.1411C123.577 39.1411 121.373 40.7663 119.377 43.9649" fill="white"/>
</mask>
<g mask="url(#mask1_21_129)">
<path d="M95.1207 4.66834L22.0435 120.218L138.698 181.702L211.775 66.1529L95.1207 4.66834Z" fill="#333333"/>
</g>
<mask id="mask2_21_129" style="mask-type:luminance" maskUnits="userSpaceOnUse" x="37" y="19" width="135" height="88">
<path d="M37.1484 19.5535C38.7685 26.8194 42.6962 29.1496 50.043 28.8916C65.0192 28.3585 80.0331 28.7197 95.0282 28.7541C97.6184 28.7541 100.209 28.9604 103.835 29.1238C101.885 32.3741 100.632 34.5667 99.2761 36.7078C87.6531 55.0745 76.0018 73.424 64.3693 91.7821C60.0083 98.661 60.4228 100.518 67.7884 106.606C69.3331 104.207 70.859 101.868 72.3472 99.5122C86.0236 77.7491 99.813 56.0461 113.254 34.1626C115.806 30.0095 118.698 28.4703 123.869 28.6251C129.125 28.7799 134.39 28.7283 139.655 28.6767C146.145 28.6165 152.635 28.5477 159.106 28.8744C166.763 29.2528 169.693 25.9595 171.416 19.5449H37.1484V19.5535Z" fill="white"/>
</mask>
<g mask="url(#mask2_21_129)">
<path d="M70.7157 -33.5167L-4.14648 84.855L137.844 159.693L212.706 41.3215L70.7157 -33.5167Z" fill="#333333"/>
</g>
</svg>
